# xmcd
#
# Track frame offsets:
#	150
#	17188
#	36034
#	58837
#
# Disc length: 1051 seconds
#
# Revision: 1
# Processed by: cddbd v1.5.2PL0 Copyright (c) Steve Scherf et al.
# Submitted via: EZCDAudioConverter 5.0.0.1
#
DISCID=2e041904
DTITLE=Leah Shaw - Home
DYEAR=2015
DGENRE=Country
TTITLE0=Up In New York City
TTITLE1=Journey
TTITLE2=The Civil War
TTITLE3=Carolina I'm Home
EXTD=
EXTT0=
EXTT1=
EXTT2=
EXTT3=
PLAYORDER=
